# xmcd
#
# Track frame offsets:
#	150
#	14700
#	43805
#	61592
#	83962
#	99287
#	123675
#	137595
#	147187
#	162120
#	171230
#	185465
#	189887
#	201910
#	211192
#	227762
#	229930
#	233182
#	256487
#	266532
#	275265
#	299775
#	305817
#	308967
#	320225
#	322300
#	331367
#	334817
#
# Disc length: 4673 seconds
#
# Revision: 0
# Processed by: cddbd v1.4PL0 Copyright (c) Steve Scherf et al.
# Submitted via: AudioConverter v4.05 Copyright (c) Dennis Rebentrost
#
DISCID=b3123f1c
DTITLE=J.S.BACH - Transcriptions Pour Clavecin
DYEAR=1900
DGENRE=
TTITLE0=in D-minor BWV 964 Adagio
TTITLE1=in D-minor BWV 964 Fugue Allegro
TTITLE2=in D-minor BWV 964 Andante
TTITLE3=in D-minor BWV 964 Allegro
TTITLE4=in E-flat Major BWV 998  Prelude
TTITLE5=in E-flat Major BWV 998 Fugue
TTITLE6=in E-flat Major BWV 998 Allegro
TTITLE7=in A-Minor BWV 996 Prelude
TTITLE8=in A-Minor BWV 996 Allemande
TTITLE9=in A-Minor BWV 996 Courante
TTITLE10=in A-Minor BWV 996 Sarabande
TTITLE11=in A-Minor BWV 996 Bourree
TTITLE12=in A-Minor BWV 996 Gigue
TTITLE13=in A-minor BWV 965 Adagio
TTITLE14=in A-minor BWV 965 Fuga
TTITLE15=in A-minor BWV 965 Adagio
TTITLE16=in A-minor BWV 965 Presto
TTITLE17=in A-minor BWV 965 Allemande
TTITLE18=in A-minor BWV 965 Courante
TTITLE19=in A-minor BWV 965 Sarabande
TTITLE20=in A-minor BWV 965 Gigue
TTITLE21=in B-minor BWV 979 Allegro
TTITLE22=in B-minor BWV 979 Adagio
TTITLE23=in B-minor BWV 979 Allegro
TTITLE24=in B-minor BWV 979 Grave
TTITLE25=in B-minor BWV 979 Andante
TTITLE26=in B-minor BWV 979 Adagio
TTITLE27=in B-minor BWV 979 Allegro
EXTD=
EXTT0=
EXTT1=
EXTT2=
EXTT3=
EXTT4=
EXTT5=
EXTT6=
EXTT7=
EXTT8=
EXTT9=
EXTT10=
EXTT11=
EXTT12=
EXTT13=
EXTT14=
EXTT15=
EXTT16=
EXTT17=
EXTT18=
EXTT19=
EXTT20=
EXTT21=
EXTT22=
EXTT23=
EXTT24=
EXTT25=
EXTT26=
EXTT27=
PLAYORDER=
